HIERARCHY
ROOT Hips
{
  OFFSET 59.4819 94.0278 3.89058
  CHANNELS 6 Xposition Yposition Zposition Zrotation Xrotation Yrotation
  JOINT spine
  {
    OFFSET 0 7.80059 0.448573
    CHANNELS 3 Zrotation Xrotation Yrotation
    JOINT spine1
    {
      OFFSET 0 10.1364 0
      CHANNELS 3 Zrotation Xrotation Yrotation
      JOINT spine2
      {
        OFFSET 0 9.71251 0
        CHANNELS 3 Zrotation Xrotation Yrotation
        JOINT Neck
        {
          OFFSET 0 24.9361 1.18887
          CHANNELS 3 Zrotation Xrotation Yrotation
          JOINT Head
          {
            OFFSET 0 7.53384 0
            CHANNELS 3 Zrotation Xrotation Yrotation
            End Site
            {
              OFFSET 0 18.2361 -6.01402
            }
          }
        }
        JOINT RightShoulder
        {
          OFFSET -4.08965 10.4888 -0.569457
          CHANNELS 3 Zrotation Xrotation Yrotation
          JOINT RightArm
          {
            OFFSET 0 13.757 0
            CHANNELS 3 Zrotation Xrotation Yrotation
            JOINT RightArmRoll
            {
              OFFSET 0 6.94478 0
              CHANNELS 3 Zrotation Xrotation Yrotation
              JOINT RightForeArm
              {
                OFFSET 0 20.2277 0
                CHANNELS 3 Zrotation Xrotation Yrotation
                JOINT RightForeArmRoll
                {
                  OFFSET 0 7.79312 0
                  CHANNELS 3 Zrotation Xrotation Yrotation
                  JOINT RightHand
                  {
                    OFFSET 0 15.6391 0
                    CHANNELS 3 Zrotation Xrotation Yrotation
                    End Site
                    {
                      OFFSET 0 0 0
                    }
                  }
                }
              }
            }
          }
        }
        JOINT LeftShoulder
        {
          OFFSET 4.08965 10.4888 -0.569457
          CHANNELS 3 Zrotation Xrotation Yrotation
          JOINT LeftArm
          {
            OFFSET 0 13.757 0
            CHANNELS 3 Zrotation Xrotation Yrotation
            JOINT LeftArmRoll
            {
              OFFSET 0 6.94478 0
              CHANNELS 3 Zrotation Xrotation Yrotation
              JOINT LeftForeArm
              {
                OFFSET 0 20.2277 0
                CHANNELS 3 Zrotation Xrotation Yrotation
                JOINT LeftForeArmRoll
                {
                  OFFSET 0 7.79312 0
                  CHANNELS 3 Zrotation Xrotation Yrotation
                  JOINT LeftHand
                  {
                    OFFSET 0 15.6391 0
                    CHANNELS 3 Zrotation Xrotation Yrotation
                    End Site
                    {
                      OFFSET 0 0 0
                    }
                  }
                }
              }
            }
          }
        }
      }
    }
  }
  JOINT RightUpLeg
  {
    OFFSET -6.91416 -1.26788 -1.06358
    CHANNELS 3 Zrotation Xrotation Yrotation
    JOINT RightUpLegRoll
    {
      OFFSET 0 18.3378 0
      CHANNELS 3 Zrotation Xrotation Yrotation
      JOINT RightLeg
      {
        OFFSET 0 -22.7085 0
        CHANNELS 3 Zrotation Xrotation Yrotation
        JOINT RightLegRoll
        {
          OFFSET 0 22.7828 0
          CHANNELS 3 Zrotation Xrotation Yrotation
          JOINT RightFoot
          {
            OFFSET 0 18.9629 0
            CHANNELS 3 Zrotation Xrotation Yrotation
            JOINT RightToeBase
            {
              OFFSET 0 15.852 0
              CHANNELS 3 Zrotation Xrotation Yrotation
              End Site
              {
                OFFSET 0.00671906 7.67701 -0.884892
              }
            }
          }
        }
      }
    }
  }
  JOINT LeftUpLeg
  {
    OFFSET 6.91416 -1.26788 -1.06358
    CHANNELS 3 Zrotation Xrotation Yrotation
    JOINT LeftUpLegRoll
    {
      OFFSET 0 18.3379 0
      CHANNELS 3 Zrotation Xrotation Yrotation
      JOINT LeftLeg
      {
        OFFSET 0 22.7084 0
        CHANNELS 3 Zrotation Xrotation Yrotation
        JOINT LeftLegRoll
        {
          OFFSET 0 22.9934 0
          CHANNELS 3 Zrotation Xrotation Yrotation
          JOINT LeftFoot
          {
            OFFSET 0 18.7522 0
            CHANNELS 3 Zrotation Xrotation Yrotation
            JOINT LeftToeBase
            {
              OFFSET 0 15.852 0
              CHANNELS 3 Zrotation Xrotation Yrotation
              End Site
              {
                OFFSET -0.030112 7.67701 -0.884892
              }
            }
          }
        }
      }
    }
  }
}
MOTION
Frames: 11
Frame Time: 0.00208333
55.6136 93.9844 9.8461 -3.27798 -5.02706 -2.73117 0.331744 -0.229657 0.416029 0.637915 3.54566 0.791655 0.629504 5.19061 0.781712 -1.43447 18.8439 -1.32327 4.90835 -16.473 -0.561868 84.6989 -4.01425 -4.25335 84.3115 7.48716 9.80798 -5.2716e-006 6.48848e-007 -1.09249e-006 14.9156 21.8883 -3.72449 -5.95399e-006 -1.53422e-006 -3 8.02888 -4.95157 0.697755 -61.5487 -0.851278 0.846066 -108.91 1.82092 -14.7823 -2.89202e-006 -2.14668e-007 -6.08396e-006 -3.06706 16.564 1.52897 1.31664e-005 8.5304e-006 3 -8.02989 -4.95142 -0.697658 -179.406 -0.167673 -2.23288 180 7.01542e-015 178.903 -179.541 11.3211 179.268 -3.07229e-007 -1.92166e-007 0.136131 -18.7215 69.7405 21.0276 8.13177 25.2329 -3.48573 -175.512 0.108229 3.59737 4.54188e-006 -4.6773e-006 -1.32876 -4.72992 -15.8509 -0.318533 -2.78689e-006 1.72253e-006 -0.335674 27.021 73.6593 -26.2998 -8.13283 25.2355 3.47489 
55.6323 93.956 9.91632 -3.27934 -5.02991 -2.7273 0.331731 -0.229357 0.415759 0.639309 3.54626 0.791032 0.630892 5.19121 0.781067 -1.43536 18.8645 -1.32657 4.9178 -16.4878 -0.562671 84.7096 -4.01329 -4.25369 84.3114 7.50642 9.59247 -5.2716e-006 6.48848e-007 -1.09249e-006 14.9989 22.1133 -3.76665 -5.95399e-006 -1.53422e-006 -3 8.02888 -4.95157 0.697755 -61.555 -0.8412 0.840913 -108.928 1.8952 -14.676 -2.89202e-006 -2.14668e-007 -6.08396e-006 -3.10814 16.6463 1.54084 1.31664e-005 8.5304e-006 3 -8.02989 -4.95142 -0.697658 -179.408 -0.152746 -2.21369 180 7.01543e-015 178.905 -179.575 11.3449 179.271 -3.07229e-007 -1.92166e-007 0.134808 -18.694 69.7454 21.0307 8.13177 25.2329 -3.48573 -175.51 0.133567 3.59219 4.54188e-006 -4.6773e-006 -1.32876 -4.73085 -15.9256 -0.320423 -2.78689e-006 1.72253e-006 -0.336013 27.085 73.7018 -26.3678 -8.13283 25.2355 3.47489 
55.6178 93.9114 9.9114 -3.28074 -5.03305 -2.72346 0.331711 -0.228977 0.415494 0.640731 3.54703 0.790417 0.632307 5.19198 0.78043 -1.43593 18.8851 -1.32984 4.9271 -16.5025 -0.563393 84.7208 -4.0123 -4.25405 84.3109 7.52671 9.37982 -5.2716e-006 6.48848e-007 -1.09249e-006 15.0826 22.3343 -3.80842 -5.95399e-006 -1.53422e-006 -3 8.02888 -4.95157 0.697755 -61.5612 -0.831338 0.835877 -108.947 1.97024 -14.5705 -2.89202e-006 -2.14668e-007 -6.08396e-006 -3.14862 16.7269 1.55243 1.31664e-005 8.5304e-006 3 -8.02989 -4.95142 -0.697658 -179.41 -0.137837 -2.19363 180 7.01543e-015 178.908 -179.61 11.3678 179.274 -3.07229e-007 -1.92166e-007 0.133361 -18.6644 69.7491 21.0327 8.13177 25.2329 -3.48573 -175.508 0.159478 3.58674 4.54188e-006 -4.6773e-006 -1.32876 -4.73207 -16.0019 -0.322413 -2.78689e-006 1.72253e-006 -0.336336 27.1504 73.745 -26.4373 -8.13283 25.2355 3.47489 
55.5987 93.9121 9.87741 -3.28219 -5.03641 -2.71964 0.331686 -0.228541 0.415233 0.642173 3.5479 0.789808 0.633743 5.19285 0.779797 -1.43627 18.9055 -1.33311 4.9363 -16.5171 -0.56406 84.7323 -4.01129 -4.25442 84.3103 7.54769 9.16919 -5.2716e-006 6.48848e-007 -1.09249e-006 15.1667 22.5527 -3.84998 -5.95399e-006 -1.53422e-006 -3 8.02888 -4.95157 0.697755 -61.5674 -0.821628 0.830923 -108.966 2.04584 -14.4655 -2.89202e-006 -2.14668e-007 -6.08396e-006 -3.18869 16.8062 1.56382 1.31664e-005 8.5304e-006 3 -8.02989 -4.95142 -0.697658 -179.413 -0.122941 -2.17296 180 7.01544e-015 178.91 -179.646 11.39 179.276 -3.07229e-007 -1.92166e-007 0.131828 -18.6334 69.752 21.0339 8.13177 25.2329 -3.48573 -175.505 0.185789 3.58111 4.54188e-006 -4.6773e-006 -1.32876 -4.7335 -16.0792 -0.324472 -2.78689e-006 1.72253e-006 -0.336649 27.2171 73.7886 -26.5078 -8.13283 25.2355 3.47489 
55.6127 93.8972 9.9039 -3.28365 -5.03989 -2.71583 0.331658 -0.228073 0.414974 0.643626 3.54885 0.789202 0.63519 5.1938 0.779167 -1.43648 18.926 -1.33636 4.94543 -16.5316 -0.564694 84.7439 -4.01026 -4.2548 84.3095 7.56904 8.95969 -5.2716e-006 6.48848e-007 -1.09249e-006 15.2512 22.7695 -3.89148 -5.95399e-006 -1.53422e-006 -3 8.02888 -4.95157 0.697755 -61.5736 -0.812004 0.826016 -108.986 2.12177 -14.3607 -2.89202e-006 -2.14668e-007 -6.08396e-006 -3.22852 16.8849 1.57511 1.31664e-005 8.5304e-006 3 -8.02989 -4.95142 -0.697658 -179.415 -0.108051 -2.15195 180 7.01545e-015 178.913 -179.683 11.4118 179.279 -3.07229e-007 -1.92166e-007 0.130246 -18.6014 69.7544 21.0347 8.13177 25.2329 -3.48573 -175.503 0.212331 3.57538 4.54188e-006 -4.6773e-006 -1.32876 -4.73505 -16.1572 -0.326573 -2.78689e-006 1.72253e-006 -0.336955 27.2847 73.8324 -26.5792 -8.13283 25.2355 3.47489 
55.6317 93.9 9.97824 -3.28512 -5.0434 -2.71201 0.331629 -0.227596 0.414715 0.645082 3.5498 0.788597 0.636639 5.19475 0.778538 -1.43666 18.9464 -1.33961 4.95454 -16.5461 -0.56532 84.7556 -4.00924 -4.25518 84.3089 7.59041 8.75046 -5.2716e-006 6.48848e-007 -1.09249e-006 15.3361 22.9859 -3.93312 -5.95399e-006 -1.53422e-006 -3 8.02888 -4.95157 0.697755 -61.5797 -0.802401 0.821121 -109.006 2.19784 -14.2561 -2.89202e-006 -2.14668e-007 -6.08396e-006 -3.26833 16.9634 1.58638 1.31664e-005 8.5304e-006 3 -8.02989 -4.95142 -0.697658 -179.418 -0.093163 -2.13086 180 7.01545e-015 178.916 -179.719 11.4336 179.282 -3.07229e-007 -1.92166e-007 0.128651 -18.5693 69.7568 21.0354 8.13177 25.2329 -3.48573 -175.5 0.238929 3.56962 4.54188e-006 -4.6773e-006 -1.32876 -4.73663 -16.2354 -0.328686 -2.78689e-006 1.72253e-006 -0.33726 27.3528 73.8762 -26.651 -8.13283 25.2355 3.47489 
55.6204 93.8954 9.97575 -3.28658 -5.04685 -2.7082 0.331601 -0.227136 0.414455 0.646533 3.55073 0.78799 0.638083 5.19568 0.777907 -1.43689 18.9668 -1.34287 4.96369 -16.5606 -0.565962 84.7673 -4.00821 -4.25555 84.3085 7.61149 8.54064 -5.2716e-006 6.48848e-007 -1.09249e-006 15.4213 23.203 -3.97506 -5.95399e-006 -1.53422e-006 -3 8.02888 -4.95157 0.697755 -61.5859 -0.792756 0.816203 -109.026 2.27384 -14.1513 -2.89202e-006 -2.14668e-007 -6.08396e-006 -3.3083 17.0423 1.59773 1.31664e-005 8.5304e-006 3 -8.02989 -4.95142 -0.697658 -179.42 -0.0782707 -2.10993 180 7.01546e-015 178.918 -179.756 11.4556 179.285 -3.07229e-007 -1.92166e-007 0.127082 -18.5376 69.7593 21.0363 8.13177 25.2329 -3.48573 -175.498 0.265414 3.56392 4.54188e-006 -4.6773e-006 -1.32876 -4.73816 -16.3133 -0.330782 -2.78689e-006 1.72253e-006 -0.337568 27.421 73.9199 -26.723 -8.13283 25.2355 3.47489 
55.6256 93.886 10.0056 -3.28801 -5.05015 -2.70437 0.331578 -0.226716 0.414192 0.647969 3.55157 0.787379 0.639513 5.19652 0.777273 -1.43729 18.9873 -1.34614 4.97291 -16.5752 -0.566645 84.7787 -4.00721 -4.25592 84.3085 7.63192 8.32935 -5.2716e-006 6.48848e-007 -1.09249e-006 15.5068 23.422 -4.0175 -5.95399e-006 -1.53422e-006 -3 8.02888 -4.95157 0.697755 -61.5921 -0.783002 0.811226 -109.047 2.34954 -14.0462 -2.89202e-006 -2.14668e-007 -6.08396e-006 -3.34862 17.122 1.60923 1.31664e-005 8.5304e-006 3 -8.02989 -4.95142 -0.697658 -179.423 -0.0633689 -2.08944 180 7.01546e-015 178.921 -179.792 11.478 179.288 -3.07229e-007 -1.92166e-007 0.125573 -18.507 69.7624 21.0377 8.13177 25.2329 -3.48573 -175.495 0.291612 3.55834 4.54188e-006 -4.6773e-006 -1.32876 -4.73955 -16.3903 -0.332831 -2.78689e-006 1.72253e-006 -0.337884 27.489 73.9632 -26.7949 -8.13283 25.2355 3.47489 
55.6269 93.8698 10.0262 -3.2894 -5.0532 -2.70052 0.33156 -0.22636 0.413926 0.649383 3.55229 0.786762 0.64092 5.19724 0.776633 -1.43794 19.0078 -1.34943 4.98225 -16.5899 -0.567392 84.7897 -4.00623 -4.25627 84.309 7.65136 8.11572 -5.2716e-006 6.48848e-007 -1.09249e-006 15.5926 23.644 -4.06062 -5.95399e-006 -1.53422e-006 -3 8.02888 -4.95157 0.697755 -61.5983 -0.773075 0.806155 -109.067 2.42475 -13.9405 -2.89202e-006 -2.14668e-007 -6.08396e-006 -3.3895 17.203 1.62099 1.31664e-005 8.5304e-006 3 -8.02989 -4.95142 -0.697658 -179.425 -0.0484523 -2.06965 180 7.01547e-015 178.923 -179.826 11.5011 179.291 -3.07229e-007 -1.92166e-007 0.124163 -18.478 69.7665 21.04 8.13177 25.2329 -3.48573 -175.493 0.317353 3.55298 4.54188e-006 -4.6773e-006 -1.32876 -4.74072 -16.4661 -0.334804 -2.78689e-006 1.72253e-006 -0.338212 27.5564 74.006 -26.8664 -8.13283 25.2355 3.47489 
55.6034 93.8573 9.97335 -3.29073 -5.05593 -2.69664 0.331549 -0.226092 0.413654 0.650765 3.55283 0.786136 0.642297 5.19778 0.775985 -1.43894 19.0285 -1.35275 4.99176 -16.6048 -0.568229 84.8002 -4.00528 -4.25661 84.3101 7.66948 7.8989 -5.2716e-006 6.48848e-007 -1.09249e-006 15.6787 23.8703 -4.10461 -5.95399e-006 -1.53422e-006 -3 8.02888 -4.95157 0.697755 -61.6046 -0.762911 0.800955 -109.088 2.49925 -13.8341 -2.89202e-006 -2.14668e-007 -6.08396e-006 -3.43111 17.286 1.63309 1.31664e-005 8.5304e-006 3 -8.02989 -4.95142 -0.697658 -179.427 -0.0335152 -2.0508 180 7.01548e-015 178.925 -179.859 11.5252 179.293 -3.07229e-007 -1.92166e-007 0.122889 -18.4515 69.7719 21.0435 8.13177 25.2329 -3.48573 -175.491 0.342464 3.54791 4.54188e-006 -4.6773e-006 -1.32876 -4.74158 -16.5402 -0.336672 -2.78689e-006 1.72253e-006 -0.338557 27.6229 74.0481 -26.937 -8.13283 25.2355 3.47489 
55.6049 93.8795 10.0086 -3.29198 -5.05823 -2.69273 0.331549 -0.225936 0.413376 0.652108 3.55315 0.7855 0.643633 5.19809 0.775328 -1.4404 19.0494 -1.35609 5.00148 -16.6198 -0.569178 84.8101 -4.00439 -4.25692 84.3121 7.68593 7.67801 -5.2716e-006 6.48848e-007 -1.09249e-006 15.7651 24.1019 -4.14967 -5.95399e-006 -1.53422e-006 -3 8.02888 -4.95157 0.697755 -61.611 -0.752444 0.795591 -109.108 2.57283 -13.7267 -2.89202e-006 -2.14668e-007 -6.08396e-006 -3.47367 17.3714 1.64562 1.31664e-005 8.5304e-006 3 -8.02989 -4.95142 -0.697658 -179.429 -0.0185525 -2.03316 180 7.01548e-015 178.928 -179.89 11.5506 179.295 -3.07229e-007 -1.92166e-007 0.121787 -18.4279 69.779 21.0486 8.13177 25.2329 -3.48573 -175.489 0.366774 3.5432 4.54188e-006 -4.6773e-006 -1.32876 -4.74203 -16.612 -0.338405 -2.78689e-006 1.72253e-006 -0.338923 27.6881 74.0892 -27.0066 -8.13283 25.2355 3.47489 
